HIERARCHY
ROOT Hips
{
	OFFSET 0.00000 0.00000 0.00000
	CHANNELS 6 Xposition Yposition Zposition Zrotation Yrotation Xrotation 
	JOINT LHipJoint
	{
		OFFSET 0 0 0
		CHANNELS 3 Zrotation Yrotation Xrotation
		JOINT LeftUpLeg
		{
			OFFSET 2.36090 -1.39315 1.24752
			CHANNELS 3 Zrotation Yrotation Xrotation
			JOINT LeftLeg
			{
				OFFSET 2.06810 -5.68207 0.00000
				CHANNELS 3 Zrotation Yrotation Xrotation
				JOINT LeftFoot
				{
					OFFSET 2.46631 -6.77613 0.00000
					CHANNELS 3 Zrotation Yrotation Xrotation
					JOINT LeftToeBase
					{
						OFFSET 0.26031 -0.71520 1.99545
						CHANNELS 3 Zrotation Yrotation Xrotation
						End Site
						{
							OFFSET 0.00000 -0.00000 1.05957
						}
					}
				}
			}
		}
	}
	JOINT RHipJoint
	{
		OFFSET 0 0 0
		CHANNELS 3 Zrotation Yrotation Xrotation
		JOINT RightUpLeg
		{
			OFFSET -2.25243 -1.39315 1.24752
			CHANNELS 3 Zrotation Yrotation Xrotation
			JOINT RightLeg
			{
				OFFSET -2.17343 -5.97145 0.00000
				CHANNELS 3 Zrotation Yrotation Xrotation
				JOINT RightFoot
				{
					OFFSET -2.52372 -6.93386 0.00000
					CHANNELS 3 Zrotation Yrotation Xrotation
					JOINT RightToeBase
					{
						OFFSET -0.22538 -0.61923 2.11447
						CHANNELS 3 Zrotation Yrotation Xrotation
						End Site
						{
							OFFSET -0.00000 -0.00000 1.10506
						}
					}
				}
			}
		}
	}
	JOINT LowerBack
	{
		OFFSET 0 0 0
		CHANNELS 3 Zrotation Yrotation Xrotation
		JOINT Spine
		{
			OFFSET 0.01594 2.13103 0.08007
			CHANNELS 3 Zrotation Yrotation Xrotation
			JOINT Spine1
			{
				OFFSET 0.01393 2.09723 0.18338
				CHANNELS 3 Zrotation Yrotation Xrotation
				JOINT Neck
				{
					OFFSET 0 0 0
					CHANNELS 3 Zrotation Yrotation Xrotation
					JOINT Neck1
					{
						OFFSET 0.05351 1.38915 0.32494
						CHANNELS 3 Zrotation Yrotation Xrotation
						JOINT Head
						{
							OFFSET 0.00711 1.45992 -0.21666
							CHANNELS 3 Zrotation Yrotation Xrotation
							End Site
							{
								OFFSET -0.00433 1.47702 -0.11056
							}
						}
					}
				}
				JOINT LeftShoulder
				{
					OFFSET 0 0 0
					CHANNELS 3 Zrotation Yrotation Xrotation
					JOINT LeftArm
					{
						OFFSET 2.87198 0.92249 0.11132
						CHANNELS 3 Zrotation Yrotation Xrotation
						JOINT LeftForeArm
						{
							OFFSET 5.52731 -0.00000 0.00000
							CHANNELS 3 Zrotation Yrotation Xrotation
							JOINT LeftHand
							{
								OFFSET 3.11059 -0.00000 0.00000
								CHANNELS 3 Zrotation Yrotation Xrotation
								JOINT LeftFingerBase
								{
									OFFSET 0 0 0
									CHANNELS 3 Zrotation Yrotation Xrotation
									JOINT LeftHandIndex1
									{
										OFFSET 0.41963 -0.00000 0.00000
										CHANNELS 3 Zrotation Yrotation Xrotation
										End Site
										{
											OFFSET 0.33831 -0.00000 0.00000
										}
									}
								}
								JOINT LThumb
								{
									OFFSET 0 0 0
									CHANNELS 3 Zrotation Yrotation Xrotation
									End Site
									{
										OFFSET 0.34348 -0.00000 0.34348
									}
								}
							}
						}
					}
				}
				JOINT RightShoulder
				{
					OFFSET 0 0 0
					CHANNELS 3 Zrotation Yrotation Xrotation
					JOINT RightArm
					{
						OFFSET -2.94710 0.68072 0.32187
						CHANNELS 3 Zrotation Yrotation Xrotation
						JOINT RightForeArm
						{
							OFFSET -5.25396 -0.00000 -0.00000
							CHANNELS 3 Zrotation Yrotation Xrotation
							JOINT RightHand
							{
								OFFSET -3.10567 -0.00000 0.00000
								CHANNELS 3 Zrotation Yrotation Xrotation
								JOINT RightFingerBase
								{
									OFFSET 0 0 0
									CHANNELS 3 Zrotation Yrotation Xrotation
									JOINT RightHandIndex1
									{
										OFFSET -0.49868 -0.00000 0.00000
										CHANNELS 3 Zrotation Yrotation Xrotation
										End Site
										{
											OFFSET -0.40204 -0.00000 0.00000
										}
									}
								}
								JOINT RThumb
								{
									OFFSET 0 0 0
									CHANNELS 3 Zrotation Yrotation Xrotation
									End Site
									{
										OFFSET -0.40818 -0.00000 0.40818
									}
								}
							}
						}
					}
				}
			}
		}
	}
}
MOTION
Frames: 8
Frame Time: 0.105263
0.00 0.00 0.00 0 0 0 0 0 0 -21 0 0 0 0 0 0 0 0 0 0 0 0 0 0 21 0 0 0 0 0 0 0 0 0 0 0 0 0 0 0 0 0 0 0 0 0 0 -16 0 0 21 0 0 11 0 0 0 -8 0 0 0 0 0 0 0 0 0 0 0 0 0 0 0 0 0 0 0 0 8 0 0 0 0 0 0 0 0 0 0 0 0 0 0 0 0 0
0.00 0.00 0.00 -82.0961 -88.8320 97.4931 0.0000 0.0000 0.0000 -19.4131 -20.2804 -10.5957 0.1836 2.7599 7.6109 -0.1999 8.7428 -7.1992 0.1782 -2.7189 -7.4971 0.0000 0.0000 0.0000 20.0052 29.7000 -20.3989 -2.9364 -10.5913 30.9136 -0.4415 -10.0627 -19.9696 -0.0055 -0.4786 1.3152 -0.9627 -0.1865 -20.2693 0.5743 -0.3424 -3.9852 1.0664 -0.2983 7.0157 3.7442 3.6760 -20.1359 3.1967 2.8015 24.5333 0.9659 1.9477 11.3459 -0.0000 0.0000 0.0000 -65.9129 20.0845 65.0731 43.3021 -49.9090 -20.9316 -0.0000 0.0000 -35.1040 22.9006 1.1869 0.5013 -7.1250 0.0000 -0.0000 -2.9311 31.2603 0.9857 -0.0000 0.0000 0.0000 70.3536 -15.7025 59.8125 -36.9047 46.1253 -16.1713 0.0000 -0.0000 -16.7826 -15.3730 -20.6820 5.5462 7.1250 -0.0000 -0.0000 13.2305 -50.8875 -1.9484
0.00 0.00 0.00 -90.0147 -88.7369 105.4560 0.0000 0.0000 0.0000 -19.2475 -20.2578 -11.1305 0.2332 3.1081 8.5800 -0.1781 8.6239 -7.7696 0.1783 -2.7200 -7.5003 0.0000 0.0000 0.0000 20.1829 29.9075 -20.2941 -2.9346 -10.5884 30.9039 -0.4470 -10.0465 -20.0109 -0.0069 -0.5367 1.4748 -1.5262 -0.1951 -19.6341 0.5275 -0.2177 -3.7676 1.3704 -0.2401 6.9104 3.8292 4.1065 -21.5386 2.5495 3.5404 24.3130 0.8616 2.2232 11.5451 0.0000 -0.0000 0.0000 -52.5903 27.3578 76.4319 72.6801 -58.8356 -45.0591 -0.0000 0.0000 -34.2115 23.6342 0.9528 0.4169 -7.1250 0.0000 -0.0000 -2.3379 31.0150 0.7996 0.0000 -0.0000 0.0000 56.1746 -22.5001 72.3480 -61.5557 56.7104 -35.6385 0.0000 -0.0000 -19.0572 -15.7159 -22.0982 6.0426 7.1250 -0.0000 -0.0000 13.4754 -52.3494 -2.4744
0.00 0.00 0.00 -75.2476 -88.7824 90.9722 0.0000 0.0000 0.0000 -19.2056 -20.6821 -11.3584 0.2275 3.0702 8.4742 -0.1855 8.6646 -7.5891 0.1805 -2.7368 -7.5468 0.0000 0.0000 0.0000 19.8815 29.5017 -20.8623 -2.9602 -10.6303 31.0430 -0.4848 -9.7580 -20.1142 -0.0082 -0.5833 1.6029 -1.6768 -0.4002 -19.3944 0.4831 -0.4493 -3.7055 1.3511 -0.3521 6.8581 4.1694 4.7358 -22.3174 1.4022 4.6524 23.5470 0.5728 2.6152 11.4441 -0.0000 0.0000 0.0000 -43.6686 31.3209 84.0937 91.7278 -59.9887 -61.4963 -0.0000 0.0000 -34.2622 22.0241 2.8167 1.1388 -7.1250 0.0000 -0.0000 -3.7193 33.0019 1.0954 -0.0000 0.0000 0.0000 46.2359 -25.7337 80.1170 -81.4703 59.7233 -52.6199 0.0000 -0.0000 -22.4596 -13.5734 -23.3864 5.4741 7.1250 -0.0000 -0.0000 16.1681 -53.2335 -3.3435
0.00 0.00 0.00 -66.9101 -88.7496 82.8361 0.0000 0.0000 0.0000 -19.1601 -20.9794 -11.6356 0.2369 3.1323 8.6473 -0.1849 8.6590 -7.5986 0.1800 -2.7324 -7.5346 0.0000 0.0000 0.0000 19.7074 29.3077 -21.1737 -2.9677 -10.6426 31.0839 -0.5017 -9.6443 -20.1774 -0.0072 -0.5486 1.5075 -1.5384 -0.3270 -19.3454 0.1931 -0.3435 -3.4727 0.9868 -0.2926 7.0780 4.5007 5.3188 -23.4350 0.1269 5.6971 22.5054 0.2391 2.9561 11.3239 0.0000 0.0000 0.0000 -35.6240 34.1653 91.8326 107.4218 -58.8215 -75.0280 -0.0000 0.0000 -40.6183 17.3735 7.8643 2.4513 -7.1250 0.0000 -0.0000 -8.1141 38.0991 1.3897 0.0000 0.0000 0.0000 38.4522 -29.1551 86.2965 -100.4989 59.5794 -69.0795 0.0000 -0.0000 -27.1918 -8.5650 -24.3067 3.5475 7.1250 -0.0000 -0.0000 21.5229 -53.2154 -4.5148
0.00 0.00 0.00 -56.4380 -88.7050 72.5530 0.0000 0.0000 0.0000 -19.1972 -21.3491 -11.9061 0.2433 3.1739 8.7634 -0.1883 8.6738 -7.5003 0.1814 -2.7431 -7.5643 0.0000 0.0000 0.0000 19.4157 29.0163 -21.6413 -3.0019 -10.6981 31.2683 -0.5274 -9.4566 -20.2588 -0.0064 -0.5149 1.4148 -1.4522 -0.2178 -19.1815 -0.0163 -0.1863 -3.2375 0.7523 -0.2083 7.2396 4.5038 5.8097 -24.6687 -1.2009 6.7000 21.1750 -0.0624 3.2390 11.1221 0.0000 -0.0000 0.0000 -30.1529 35.9800 98.6296 122.0842 -55.7285 -87.3873 -0.0000 0.0000 -56.7546 9.7640 18.2782 3.0893 -7.1250 0.0000 -0.0000 -17.5637 47.7057 -1.2078 0.0000 -0.0000 0.0000 33.2850 -32.1836 90.3356 -114.9181 57.5187 -81.3999 0.0000 -0.0000 -36.4065 1.4297 -28.7260 -0.6873 7.1250 -0.0000 -0.0000 34.0031 -55.2559 -9.3515
0.00 0.00 0.00 -54.0711 -88.7845 70.4557 0.0000 0.0000 0.0000 -19.1903 -21.5898 -12.5197 0.2622 3.2945 9.0997 -0.1846 8.6211 -7.5096 0.1642 -2.6110 -7.1976 0.0000 0.0000 0.0000 18.9758 29.6960 -22.1329 -3.0763 -10.8176 31.6672 -0.4910 -10.0136 -20.4322 -0.0049 -0.4523 1.2429 -1.9991 -0.1239 -19.1633 -0.0335 0.0935 -2.5506 1.1171 -0.0830 7.9679 4.7882 6.5862 -27.4731 -3.6994 8.1468 19.2082 -0.7170 3.5660 11.0631 0.0000 -0.0000 0.0000 -28.8685 36.7536 101.7706 136.8470 -49.8309 -99.1824 -0.0000 0.0000 -83.0431 16.4864 28.4877 8.0349 -7.1250 0.0000 -0.0000 -16.0530 58.7612 -5.4900 0.0000 -0.0000 0.0000 29.1566 -33.8615 94.8834 -130.2060 52.9121 -93.9903 0.0000 -0.0000 -57.4498 7.8328 -37.7405 -4.8131 7.1250 -0.0000 -0.0000 49.1002 -60.7371 -21.7742
0.00 0.00 0.00 -63.3018 -89.0899 84.2709 0.0000 0.0000 0.0000 -16.7739 -24.7393 -26.4322 1.3081 7.2449 20.4431 0.0535 6.7308 -10.8141 0.1299 -2.3232 -6.3996 0.0000 0.0000 0.0000 13.3628 31.0410 -36.0504 -4.9120 -13.2840 40.4412 -0.5057 -7.9080 -18.5847 -0.0796 1.8194 -5.0068 -5.6280 0.1775 -15.5821 -1.7989 1.2820 -0.9019 1.5358 0.4187 7.7074 14.5658 19.8546 -31.5759 -26.6047 24.3403 1.1824 -6.5489 8.8968 10.7858 0.0000 0.0000 0.0000 -38.1792 26.8465 101.5048 144.5448 -45.1345 -104.8649 -0.0000 0.0000 -117.5910 81.4907 28.5608 72.6226 -7.1250 0.0000 -0.0000 106.7179 -66.6699 -132.3126 0.0000 0.0000 0.0000 42.3176 -26.9561 98.9545 -143.8200 45.6366 -104.3490 0.0000 -0.0000 -96.9510 -89.3776 -50.6616 89.1953 7.1250 -0.0000 -0.0000 -162.2200 60.3714 -173.2084
